<svg xmlns="http://www.w3.org/2000/svg" viewBox="0 0 312.94 81"><defs><style>.cls-1{fill:#fff;}</style></defs><title>logo bpi</title><g id="Calque_2" data-name="Calque 2"><g id="image"><path d="M42.85,75.89a22.33,22.33,0,0,1-.59-3.56c0-16,0-32,0-47.94,0-2.5.56-4.26,3.56-4.17,6.31.18,12.64.15,18.94.55a14,14,0,0,1,6,2.08c6.56,3.91,9.63,14.3,7.41,24.28-1.62,7.31-6.42,11.24-15,12.29-7,.86-7,.86-7.06,7.9-.13,10.08,1.46,8.75-9.14,8.86C45.63,76.19,44.33,76,42.85,75.89ZM56.41,53.54c7.1-.81,9.25-5.68,8.3-17.11-.62-7.4-2.84-10.1-8.3-9.79Z"/><path d="M11.92,59.63C.08,59.81.08,59.81.08,47.92.08,35.11.21,22.29,0,9.47c-.06-4.14.83-6,5.49-5.76,9.57.46,8.43-1.08,8.51,8.61.06,7.37,0,7.38,7.23,8.27C33.62,22.14,39.22,31.78,36,46,34,54.38,29.05,58.83,20.4,59.59,17.59,59.83,14.74,59.63,11.92,59.63Zm2.48-6.1c6.86-1,9-5.39,8.32-16.28-.47-7.87-2.48-10.58-8.32-10.73Z"/><path class="cls-1" d="M209.82,42.83c0,4.16-.11,8.33,0,12.48.11,3.1-1,4.43-4.28,4.55-9.67.38-9.67.51-9.67-9,0-8.65.11-17.31,0-26-.07-3.37.92-4.89,4.5-4.7,6.31.35,12.65.18,18.94.66,8.73.66,12.84,5.22,13,14,.11,6.83-.11,13.66.12,20.47.11,3.55-1.29,4.56-4.65,4.63-9,.19-9,.31-9-8.67,0-4.83.09-9.66,0-14.49-.06-2.13.05-4.69-1-6.27-1.23-1.77-3.75-2.65-5.71-3.92-.69,1.61-1.86,3.19-2,4.84C209.62,35.16,209.82,39,209.82,42.83Z"/><path class="cls-1" d="M174.42,32.88c-1-7.55-1.85-7.89-16.31-6.87-1.35-3.76-.54-6.18,3.92-6.25,4.79-.07,9.67-.55,14.35.15,7.62,1.14,11.63,6.2,11.75,13.82.11,7.33,0,14.66.06,22,0,2.6-.63,4.15-3.57,4.08-7-.17-14,0-21-.46-6.48-.45-9.95-3.75-10.81-9.15-1.07-6.77,1.56-12.35,7.75-14.51C164.9,34.17,169.59,33.81,174.42,32.88Zm0,6.73c-5.47.15-8.18,3-7.88,8,.29,4.79,2.38,6.33,7.88,5.55Z"/><path class="cls-1" d="M290.49,40.66c-.6,10.76,4.41,13.87,20.23,12.62,1.23,4,.7,6.8-4.32,7-2.81.14-5.62.8-8.41.71-17.16-.59-26.83-16.58-19.6-32.26C282,21,290.1,17.54,299.88,19.63c8.17,1.75,12.92,7.91,13.06,16.51.05,3.2-1.39,4-4.22,4-5.65-.07-11.3,0-17,.12A6.17,6.17,0,0,0,290.49,40.66Zm8.19-7.17c-.1-3.85.37-8.19-4-8.22-4.68,0-4.2,4.45-4.38,8.22Z"/><path class="cls-1" d="M130.6,3.93c1.26,4.06.64,6.12-3.73,6.33a8.48,8.48,0,0,0-5.55,2.6c-1.08,1.28-1.29,3.79-.94,5.56.17.82,2.55,1.45,4,1.71,2.21.39,4.87-.38,4.78,3.38-.08,3.57-2.67,2.93-4.62,2.77-3.87-.31-4.85,1.47-4.77,5,.18,7.82-.12,15.66.12,23.47.12,4-1.47,5.17-5.27,5.12-10.65-.16-8.63.09-8.73-8.45-.1-9.66,0-19.31,0-29,0-12.74,4.35-17.48,17-18.49C125.33,3.76,127.83,3.93,130.6,3.93Z"/><path class="cls-1" d="M272.4,53.21c1.45,4.12.62,6.62-4,7-1.82.16-3.61.63-5.43.78-17.82,1.49-29.37-13.08-23.93-30.14,2.66-8.35,11.13-13.1,20.73-11.65,8.66,1.3,13.5,6.71,13.79,16H261.44a50.58,50.58,0,0,0-1.77-7.3,4.65,4.65,0,0,0-3.09-2.63,4.71,4.71,0,0,0-3.49,2c-3.26,4.86-2.62,18.91,1.74,22.74,2.57,2.26,6.64,3.11,10.19,3.85C267.3,54.36,269.86,53.49,272.4,53.21Z"/><path class="cls-1" d="M152.06,19.28c.95,3.07,1.44,5.43-2.43,6.41s-4.76,4.25-4.76,7.81c0,7-.12,14,0,21,.08,3.49-.88,5.11-4.77,5-11.11-.31-9.06.95-9.26-9.32-.09-4.16,0-8.32,0-12.47C130.86,24.24,138.26,17.72,152.06,19.28Z"/><path d="M98,40c0,5.14-.13,10.3,0,15.44.12,3.24-1.15,4.31-4.33,4.42-9.58.33-9.58.44-9.58-9.18,0-8.63.11-17.27,0-25.9-.06-3.48,1.29-4.66,4.69-4.63,11.39.11,9-.26,9.25,8.89.08,3.65,0,7.3,0,11Z"/><circle cx="91.49" cy="8.5" r="8.5"/><circle class="cls-1" cx="91.49" cy="72.5" r="8.5"/></g></g></svg>