<svg xmlns="http://www.w3.org/2000/svg" viewBox="0 0 157 157"><defs><style>.cls-1{fill:#fff;}</style></defs><title>Fichier 12</title><g id="Calque_2" data-name="Calque 2"><g id="image"><path class="cls-1" d="M78.5,0A78.5,78.5,0,1,0,157,78.5,78.51,78.51,0,0,0,78.5,0ZM56,121H38V65H56Zm1-72.5A9.52,9.52,0,0,1,47.5,58h-2A9.52,9.52,0,0,1,36,48.5v-2A9.52,9.52,0,0,1,45.5,37h2A9.52,9.52,0,0,1,57,46.5Zm63.47,72.16c-.32,0-.55,0-.78,0H103.6c-.34,0-.47-.16-.47-.48s0-.48,0-.72q0-13.86,0-27.73a24.53,24.53,0,0,0-.42-5.06A12.39,12.39,0,0,0,101.37,83a7.65,7.65,0,0,0-5.86-3.92,12,12,0,0,0-4.92.31,8.79,8.79,0,0,0-6.11,5.7,14,14,0,0,0-.92,4.52c-.06,1.53-.11,3-.11,4.58q0,12.72,0,25.44v1c-.34,0-.57,0-.8,0H67.53c-.11,0-.22,0-.33,0-.32,0-.49-.12-.48-.46,0-.18,0-.35,0-.53V64.93c1.44-.13,2.83,0,4.21-.06s2.75,0,4.12,0h8.34a16.72,16.72,0,0,1,.06,2.33c0,.78,0,1.57,0,2.35V72l.35-.44a19.44,19.44,0,0,1,11.65-7.87,19.09,19.09,0,0,1,4.27-.49,24.5,24.5,0,0,1,6.72.75,17.44,17.44,0,0,1,12.28,11A23.85,23.85,0,0,1,120.33,82c.09,1.2.14,2.4.14,3.59q0,17,0,34.08Z"/></g></g></svg>