<svg xmlns="http://www.w3.org/2000/svg" viewBox="0 0 110.82 110.82"><defs><style>.cls-1{fill:#fff;}</style></defs><title>picto téléphone</title><g id="Calque_2" data-name="Calque 2"><g id="image"><path class="cls-1" d="M73.18,67a2,2,0,0,0-3,0c-.87.86-1.72,1.73-2.59,2.59a5.21,5.21,0,0,1-7.64,0Q50.68,60.35,41.41,51a5.27,5.27,0,0,1,0-7.57L44,40.94a2,2,0,0,0,0-3.26L36.25,30c-.15-.15-.3-.3-.47-.44a1.63,1.63,0,0,0-2.42.27c-.85,1.17-1.74,2.32-2.48,3.56a12.89,12.89,0,0,0-1.22,11.39,29,29,0,0,0,4.07,7.35,82.94,82.94,0,0,0,6.94,8.15A184.49,184.49,0,0,0,55.36,74.48a42.36,42.36,0,0,0,8.4,5.84,16.13,16.13,0,0,0,7.73,1.86,12.89,12.89,0,0,0,3.57-.75,24.25,24.25,0,0,0,6-3.54,1.79,1.79,0,0,0,.21-2.83Z"/><path class="cls-1" d="M55.41,0a55.41,55.41,0,1,0,55.41,55.41A55.41,55.41,0,0,0,55.41,0ZM83.86,80.87a28.28,28.28,0,0,1-6.29,4,16.73,16.73,0,0,1-5.77,1.45A21.38,21.38,0,0,1,61,83.46a56.65,56.65,0,0,1-10.38-7.7A204.92,204.92,0,0,1,34.9,60a53.58,53.58,0,0,1-7.19-9.8A22.56,22.56,0,0,1,25,42.6a16.61,16.61,0,0,1,.77-7.81,24.15,24.15,0,0,1,4.72-7.94,5.72,5.72,0,0,1,8.4,0c2.33,2.31,4.64,4.64,7,7,.44.44.89.88,1.32,1.33a6,6,0,0,1,0,8.3c-.9.95-1.85,1.87-2.77,2.8a1.23,1.23,0,0,0,0,2L62.77,66.65a1.22,1.22,0,0,0,2,0c1-.93,1.87-1.89,2.85-2.79A6,6,0,0,1,76,64c2.83,2.8,5.68,5.59,8.43,8.47A5.71,5.71,0,0,1,83.86,80.87Z"/></g></g></svg>