<svg xmlns="http://www.w3.org/2000/svg" xmlns:xlink="http://www.w3.org/1999/xlink" viewBox="0 0 157 157"><defs><style>.cls-1{fill:#fff;}.cls-2{clip-path:url(#clip-path);}</style><clipPath id="clip-path"><path class="cls-1" d="M78.5,0A78.5,78.5,0,0,0,64.59,155.75V97.67c0-1.07,0-1.07-1.08-1.07H48.75c-1,0-1,0-1-1V74.75c0-1.07,0-1.07,1.09-1.07,5,0,9.94,0,14.91,0,.69,0,.89-.18.89-.88,0-3.81,0-7.64.21-11.45a51.61,51.61,0,0,1,5.64-21A24.86,24.86,0,0,1,85.16,28a55.27,55.27,0,0,1,13.36-2.55,119.44,119.44,0,0,1,15.37,0c.54,0,.73.2.73.74q0,10.88,0,21.74c0,.58-.23.72-.77.67A53.46,53.46,0,0,0,103,48.46,17.93,17.93,0,0,0,96,50.26a11.36,11.36,0,0,0-6.2,10.21c-.13,4.1-.23,8.21-.38,12.31,0,.74.23.91.93.91,7.72,0,15.44,0,23.16,0,1.07,0,1.07,0,1.07,1.08v20.8c0,1,0,1-1,1H90.64c-1.17,0-1.17,0-1.17,1.21v58.41A78.49,78.49,0,0,0,78.5,0Z"/></clipPath></defs><title>Fichier 11</title><g id="Calque_2" data-name="Calque 2"><g id="image"><path class="cls-1" d="M78.5,0A78.5,78.5,0,0,0,64.59,155.75V97.67c0-1.07,0-1.07-1.08-1.07H48.75c-1,0-1,0-1-1V74.75c0-1.07,0-1.07,1.09-1.07,5,0,9.94,0,14.91,0,.69,0,.89-.18.89-.88,0-3.81,0-7.64.21-11.45a51.61,51.61,0,0,1,5.64-21A24.86,24.86,0,0,1,85.16,28a55.27,55.27,0,0,1,13.36-2.55,119.44,119.44,0,0,1,15.37,0c.54,0,.73.2.73.74q0,10.88,0,21.74c0,.58-.23.72-.77.67A53.46,53.46,0,0,0,103,48.46,17.93,17.93,0,0,0,96,50.26a11.36,11.36,0,0,0-6.2,10.21c-.13,4.1-.23,8.21-.38,12.31,0,.74.23.91.93.91,7.72,0,15.44,0,23.16,0,1.07,0,1.07,0,1.07,1.08v20.8c0,1,0,1-1,1H90.64c-1.17,0-1.17,0-1.17,1.21v58.41A78.49,78.49,0,0,0,78.5,0Z"/><g class="cls-2"><path class="cls-1" d="M90.64,96.6h22.92c1,0,1,0,1-1V74.76c0-1.08,0-1.08-1.07-1.08-7.72,0-15.44,0-23.16,0-.7,0-.95-.17-.93-.91.15-4.1.25-8.21.38-12.31A11.36,11.36,0,0,1,96,50.26a17.93,17.93,0,0,1,6.94-1.8,53.46,53.46,0,0,1,10.88.12c.54.05.77-.09.77-.67q0-10.86,0-21.74c0-.54-.19-.71-.73-.74a119.44,119.44,0,0,0-15.37,0A55.27,55.27,0,0,0,85.16,28,24.86,24.86,0,0,0,70.45,40.32a51.61,51.61,0,0,0-5.64,21c-.24,3.81-.18,7.64-.21,11.45,0,.7-.2.89-.89.88-5,0-9.94,0-14.91,0-1.08,0-1.09,0-1.09,1.07v20.8c0,1,0,1,1,1H63.51c1.07,0,1.08,0,1.08,1.07v58.08a77.8,77.8,0,0,0,24.88.47V97.81C89.47,96.6,89.47,96.6,90.64,96.6Z"/></g></g></g></svg>