<svg xmlns="http://www.w3.org/2000/svg" viewBox="0 0 110.82 110.82"><defs><style>.cls-1{fill:#fff;}</style></defs><title>picto mail</title><g id="Calque_2" data-name="Calque 2"><g id="image"><path class="cls-1" d="M55.41,0a55.41,55.41,0,1,0,55.41,55.41A55.41,55.41,0,0,0,55.41,0ZM84.66,61.42A9,9,0,0,1,67.4,65l-.2-.42a14.42,14.42,0,0,1-11.62,5.67A14,14,0,0,1,45.41,66a14.38,14.38,0,0,1-.81-19.53,14,14,0,0,1,10.89-5.16,14.41,14.41,0,0,1,11.09,4.9c0-1.12,0-2.12,0-3.12a1.8,1.8,0,0,1,3.59-.19,4.52,4.52,0,0,1,0,.64V61a5.43,5.43,0,0,0,3.33,5.18A5.37,5.37,0,0,0,81,61.68a46.74,46.74,0,0,0-.24-9.75,25.07,25.07,0,0,0-8.51-15.38,24.25,24.25,0,0,0-10-5.31A25.41,25.41,0,0,0,31.47,48.15,23.93,23.93,0,0,0,31,61.59c2.24,8.8,7.63,15,16.18,18,8.21,2.93,16,1.73,23.21-3.22.92-.63,1.75-1.4,2.62-2.1a1.85,1.85,0,0,1,2.19-.09,1.78,1.78,0,0,1,.64,2.08,1.86,1.86,0,0,1-.48.72,29,29,0,0,1-34.29,3.79A28.64,28.64,0,0,1,28.9,66.86a27.68,27.68,0,0,1-2-14.34A28.45,28.45,0,0,1,42,30.18a27.72,27.72,0,0,1,16.84-3.25A29.07,29.07,0,0,1,84.1,50a36.51,36.51,0,0,1,.55,5.23C84.74,57.31,84.71,59.37,84.66,61.42Z"/><path class="cls-1" d="M55.7,44.88A10.88,10.88,0,1,0,66.55,55.77,10.87,10.87,0,0,0,55.7,44.88Z"/></g></g></svg>