<svg xmlns="http://www.w3.org/2000/svg" viewBox="0 0 157 157"><defs><style>.cls-1{fill:#fff;}</style></defs><title>picto instagram</title><g id="Calque_2" data-name="Calque 2"><g id="image"><path class="cls-1" d="M78.5,0A78.5,78.5,0,1,0,157,78.5,78.51,78.51,0,0,0,78.5,0ZM129,104.33a25.25,25.25,0,0,1-25.17,25.17H53.17A25.25,25.25,0,0,1,28,104.33V53.67A25.25,25.25,0,0,1,53.17,28.5h50.66A25.25,25.25,0,0,1,129,53.67Z"/><circle class="cls-1" cx="78.5" cy="78.5" r="16.5"/><path class="cls-1" d="M102,38H55A17,17,0,0,0,38,55v47a17,17,0,0,0,17,17h47a17,17,0,0,0,17-17V55A17,17,0,0,0,102,38ZM78.5,105A26.5,26.5,0,1,1,105,78.5,26.49,26.49,0,0,1,78.5,105ZM105,58.33A6.31,6.31,0,1,1,111.29,52,6.32,6.32,0,0,1,105,58.33Z"/></g></g></svg>